<?xml version="1.0" encoding="utf-8"?>
<!-- Generator: Adobe Illustrator 24.2.3, SVG Export Plug-In . SVG Version: 6.00 Build 0)  -->
<svg version="1.1" id="圖層_1" xmlns="http://www.w3.org/2000/svg" xmlns:xlink="http://www.w3.org/1999/xlink" x="0px" y="0px"
	 viewBox="0 0 60 60" style="enable-background:new 0 0 60 60;" xml:space="preserve">
<style type="text/css">
	.st0{fill:#C2956E;}
</style>
<path class="st0" d="M45,20.3H35v-2.2h10V20.3z M47.1,35.6c-1.9,5.6-14.9,7.4-14.9-3.9c0-11.5,13.8-10.9,15.1-2.2
	c0.1,0.7,0.2,1.7,0.1,3.1h-11c-0.3,4.3,4.4,4.8,6,3L47.1,35.6L47.1,35.6z M36.6,29.7h6.6C42.8,25.5,37.2,25.2,36.6,29.7z M21.9,39.9
	h-9.4V18.1h10.1c8,0.1,8.1,7.9,4,10.1C31.7,30,31.8,39.9,21.9,39.9z M17.2,27.1h4.9c3.7,0,4.2-4.6-0.5-4.6h-4.5V27.1z M21.8,30.7
	h-4.6v4.9h4.6C26.2,35.6,25.9,30.7,21.8,30.7z M30,5c13.8,0,25,11.2,25,25S43.8,55,30,55S5,43.8,5,30S16.2,5,30,5z M30,0
	C13.4,0,0,13.4,0,30s13.4,30,30,30s30-13.4,30-30S46.6,0,30,0z"/>
</svg>
