<?xml version="1.0" encoding="utf-8"?>
<!-- Generator: Adobe Illustrator 24.2.3, SVG Export Plug-In . SVG Version: 6.00 Build 0)  -->
<svg version="1.1" id="圖層_1" xmlns="http://www.w3.org/2000/svg" xmlns:xlink="http://www.w3.org/1999/xlink" x="0px" y="0px"
	 viewBox="0 0 60 60" style="enable-background:new 0 0 60 60;" xml:space="preserve">
<style type="text/css">
	.st0{fill-rule:evenodd;clip-rule:evenodd;fill:#C2956E;}
</style>
<path class="st0" d="M30,0C13.4,0,0,13.4,0,30s13.4,30,30,30s30-13.4,30-30S46.6,0,30,0z M30,5c13.8,0,25,11.2,25,25S43.8,55,30,55
	S5,43.8,5,30S16.2,5,30,5z M23.9,41.9H15v-0.5l3.2-3.8c0.3-0.3,0.5-0.8,0.4-1.3V23c0-0.4-0.1-0.7-0.4-1l-2.8-3.4v-0.5h8.7l6.7,14.7
	l5.9-14.7H45v0.5l-2.4,2.3c-0.2,0.2-0.3,0.4-0.3,0.7v16.9c0,0.3,0.1,0.5,0.3,0.7l2.3,2.3v0.5H33.2v-0.5l2.4-2.4
	c0.2-0.2,0.2-0.3,0.2-0.7V24.7l-6.7,17.1h-0.9l-7.8-17.1v11.5c-0.1,0.5,0.1,1,0.4,1.3l3.1,3.8C23.9,41.3,23.9,41.9,23.9,41.9z"/>
</svg>
