<?xml version="1.0" encoding="utf-8"?>
<!-- Generator: Adobe Illustrator 24.2.3, SVG Export Plug-In . SVG Version: 6.00 Build 0)  -->
<svg version="1.1" id="圖層_1" xmlns="http://www.w3.org/2000/svg" xmlns:xlink="http://www.w3.org/1999/xlink" x="0px" y="0px"
	 viewBox="0 0 60 60" style="enable-background:new 0 0 60 60;" xml:space="preserve">
<style type="text/css">
	.st0{fill:#C2956E;}
</style>
<path class="st0" d="M30,5c13.8,0,25,11.2,25,25S43.8,55,30,55S5,43.8,5,30S16.2,5,30,5z M30,0C13.4,0,0,13.4,0,30s13.4,30,30,30
	s30-13.4,30-30S46.6,0,30,0z M25,20c0,1.4-1.1,2.5-2.5,2.5S20,21.4,20,20c0-1.4,1.1-2.5,2.5-2.5S25,18.6,25,20z M25,25h-5v15h5V25z
	 M32.5,25h-5v15h5v-7.2c0-4.3,5-4.7,5,0V40h5v-8.4c0-8.2-7.8-7.9-10-3.9C32.5,27.7,32.5,25,32.5,25z"/>
</svg>
